HIERARCHY
ROOT Hips
{
 OFFSET 0.000000 0.000000 0.000000
 CHANNELS 6 Xposition Yposition Zposition Yrotation Xrotation Zrotation
 JOINT Chest
 {
  OFFSET 0.000000 9.585900 0.002600
  CHANNELS 3 Yrotation Xrotation Zrotation
  JOINT Chest2
  {
   OFFSET 0.000000 9.601200 -0.005300
   CHANNELS 3 Yrotation Xrotation Zrotation
   JOINT Chest3
   {
    OFFSET 0.000000 9.561800 0.000000
    CHANNELS 3 Yrotation Xrotation Zrotation
    JOINT Chest4
    {
     OFFSET 0.000000 9.552100 0.000000
     CHANNELS 3 Yrotation Xrotation Zrotation
     JOINT Neck
     {
      OFFSET 0.000000 14.453000 0.000000
      CHANNELS 3 Yrotation Xrotation Zrotation
      JOINT Head
      {
       OFFSET 0.000000 8.936500 -0.011300
       CHANNELS 3 Yrotation Xrotation Zrotation
       End Site
       {
        OFFSET 0.000000 17.073600 -0.006000
       }
      }
     }
     JOINT RightCollar
     {
      OFFSET -2.921100 9.558500 0.000000
      CHANNELS 3 Yrotation Xrotation Zrotation
      JOINT RightShoulder
      {
       OFFSET -13.519700 0.000000 0.000000
       CHANNELS 3 Yrotation Xrotation Zrotation
       JOINT RightElbow
       {
        OFFSET 0.000000 -29.696600 0.000000
        CHANNELS 3 Yrotation Xrotation Zrotation
        JOINT RightWrist
        {
         OFFSET 0.000000 -24.004700 0.000000
         CHANNELS 3 Yrotation Xrotation Zrotation
         End Site
         {
          OFFSET 0.000000 -17.728500 0.000000
         }
        }
       }
      }
     }
     JOINT LeftCollar
     {
      OFFSET 2.921100 9.558500 0.000000
      CHANNELS 3 Yrotation Xrotation Zrotation
      JOINT LeftShoulder
      {
       OFFSET 13.519700 0.000000 0.000000
       CHANNELS 3 Yrotation Xrotation Zrotation
       JOINT LeftElbow
       {
        OFFSET 0.000000 -29.696600 0.000000
        CHANNELS 3 Yrotation Xrotation Zrotation
        JOINT LeftWrist
        {
         OFFSET 0.000000 -24.004700 0.000000
         CHANNELS 3 Yrotation Xrotation Zrotation
         End Site
         {
          OFFSET 0.000000 -17.728500 0.000000
         }
        }
       }
      }
     }
    }
   }
  }
 }
 JOINT RightHip
 {
  OFFSET -7.771700 -0.012900 -0.001300
  CHANNELS 3 Yrotation Xrotation Zrotation
  JOINT RightKnee
  {
   OFFSET 0.000000 -40.869800 0.001200
   CHANNELS 3 Yrotation Xrotation Zrotation
   JOINT RightAnkle
   {
    OFFSET 0.000000 -39.717900 0.002100
    CHANNELS 3 Yrotation Xrotation Zrotation
    JOINT RightToe
    {
     OFFSET 0.000000 -4.965400 11.033500
     CHANNELS 3 Yrotation Xrotation Zrotation
     End Site
     {
      OFFSET 0.000000 -1.423100 5.872300
     }
    }
   }
  }
 }
 JOINT LeftHip
 {
  OFFSET 7.771700 -0.012900 -0.001300
  CHANNELS 3 Yrotation Xrotation Zrotation
  JOINT LeftKnee
  {
   OFFSET 0.000000 -40.869800 0.001200
   CHANNELS 3 Yrotation Xrotation Zrotation
   JOINT LeftAnkle
   {
    OFFSET 0.000000 -39.717900 0.002100
    CHANNELS 3 Yrotation Xrotation Zrotation
    JOINT LeftToe
    {
     OFFSET 0.000000 -4.965400 11.033500
     CHANNELS 3 Yrotation Xrotation Zrotation
     End Site
     {
      OFFSET 0.000000 -1.423100 5.872300
     }
    }
   }
  }
 }
}
MOTION
Frames: 9
Frame Time: 0.008333
-32.199594 50.607896 19.542002 164.740352 -5.431483 -0.208356 2.830688 5.994411 0.447367 0.104612 0.242453 -0.013907 0.186790 0.423589 -0.031539 2.540709 5.795388 -0.316249 1.959823 19.541246 0.760432 3.343377 0.509165 0.778059 2.095634 5.799063 0.474021 -6.491068 -10.105788 -6.874344 -19.749593 -74.777366 43.092163 -3.103578 -0.099247 -33.705320 -4.534912 2.060496 -0.013343 19.271064 -6.240753 2.569200 34.391231 -70.426800 -57.292990 2.323845 5.770106 17.679890 -12.487663 -74.061406 4.154719 -137.819115 81.790459 -135.127006 -3.502304 -17.837493 -2.348268 -0.260489 0.765900 -0.115248 -4.526132 -79.469219 23.148095 101.815119 77.801126 97.628760 -15.219570 -23.302406 1.805356 -0.335611 -1.152702 -0.163122
-32.201573 50.607790 19.544608 164.757408 -5.416785 -0.215989 2.814698 5.977817 0.449259 0.106287 0.242780 -0.014320 0.186805 0.423811 -0.031553 2.538161 5.799040 -0.316568 1.961245 19.542133 0.760833 3.344336 0.513451 0.780838 2.094085 5.796825 0.474588 -6.490941 -10.106133 -6.871608 -19.740797 -74.776223 43.085753 -3.103460 -0.100046 -33.705875 -4.535685 2.057120 -0.018369 19.271956 -6.242307 2.577118 34.382925 -70.423215 -57.286445 2.322607 5.770699 17.684000 -12.517682 -74.072944 4.168603 -137.844642 81.797313 -135.147084 -3.503450 -17.838455 -2.348610 -0.263481 0.767474 -0.117103 -4.576944 -79.483743 23.186316 101.760827 77.792720 97.567942 -15.234404 -23.282118 1.808158 -0.340213 -1.150629 -0.159379
-32.202357 50.607736 19.546985 164.765703 -5.405894 -0.227047 2.807379 5.965806 0.457786 0.106177 0.241157 -0.018120 0.186711 0.424270 -0.031484 2.538795 5.804745 -0.316871 1.961152 19.543563 0.763536 3.346551 0.510729 0.782590 2.087004 5.786689 0.473057 -6.491993 -10.094671 -6.868530 -19.709447 -74.778838 43.052245 -3.110990 -0.097415 -33.706891 -4.534711 2.053041 -0.016740 19.275960 -6.241401 2.571767 34.333927 -70.426536 -57.243390 2.319846 5.773922 17.691420 -12.567980 -74.078753 4.213378 -137.834322 81.800698 -135.132171 -3.511305 -17.839273 -2.354122 -0.254819 0.769150 -0.114580 -4.586855 -79.495136 23.200076 101.709793 77.799522 97.520933 -15.258554 -23.274642 1.810717 -0.341341 -1.134731 -0.153208
-32.205273 50.607810 19.546876 164.770150 -5.405615 -0.219678 2.801327 5.969447 0.443956 0.105226 0.243983 -0.020994 0.186673 0.425262 -0.032329 2.541578 5.800855 -0.314045 1.960659 19.552127 0.760464 3.348231 0.510882 0.788453 2.082477 5.778799 0.475434 -6.498440 -10.086288 -6.879401 -19.740773 -74.779698 43.092531 -3.116771 -0.095571 -33.705815 -4.533881 2.050945 -0.012777 19.277086 -6.243559 2.566841 34.302232 -70.429045 -57.213030 2.321614 5.773915 17.691726 -12.547594 -74.080480 4.184491 -137.875401 81.805096 -135.171247 -3.513854 -17.844211 -2.358550 -0.251953 0.772569 -0.112898 -4.514223 -79.497554 23.125657 101.697121 77.805668 97.511809 -15.266821 -23.261799 1.806365 -0.355909 -1.130398 -0.147761
-32.208016 50.607970 19.545159 164.766055 -5.413545 -0.208651 2.800837 5.984513 0.426621 0.108458 0.238252 -0.015325 0.186267 0.426051 -0.033020 2.541267 5.802258 -0.318607 1.963265 19.550188 0.764956 3.345989 0.529646 0.780407 2.078360 5.772678 0.477818 -6.494324 -10.083588 -6.884917 -19.748306 -74.776692 43.100857 -3.120897 -0.097559 -33.704002 -4.533357 2.050318 -0.007412 19.275979 -6.241783 2.569400 34.307417 -70.427378 -57.217860 2.320804 5.771951 17.691777 -12.503495 -74.076915 4.137350 -137.945576 81.808610 -135.235558 -3.522602 -17.845674 -2.365824 -0.242158 0.771457 -0.109853 -4.417250 -79.492397 23.032351 101.717462 77.814212 97.539009 -15.268614 -23.260574 1.807010 -0.350951 -1.124649 -0.146639
-32.208299 50.608165 19.542864 164.752038 -5.426558 -0.209155 2.813529 6.000107 0.424867 0.108203 0.238486 -0.013656 0.187318 0.424670 -0.031908 2.540274 5.803392 -0.323115 1.965535 19.553123 0.765173 3.346933 0.532454 0.779170 2.075598 5.768323 0.481025 -6.488907 -10.082413 -6.887487 -19.750401 -74.774509 43.102891 -3.115234 -0.087279 -33.698809 -4.534355 2.050217 -0.002133 19.278280 -6.241756 2.570590 34.308315 -70.425392 -57.220667 2.321414 5.770813 17.691856 -12.497796 -74.064099 4.141209 -137.976953 81.810390 -135.268337 -3.514804 -17.842634 -2.366097 -0.248340 0.767889 -0.112934 -4.380343 -79.482535 23.006868 101.771558 77.824679 97.600342 -15.235609 -23.277247 1.809761 -0.336325 -1.113397 -0.151865
-32.207785 50.608360 19.539721 164.735910 -5.443096 -0.212262 2.830585 6.018108 0.426030 0.105178 0.239756 -0.014131 0.188375 0.426022 -0.036452 2.541889 5.800308 -0.319836 1.964707 19.555856 0.764853 3.349917 0.534938 0.778026 2.075122 5.766064 0.486156 -6.486031 -10.083150 -6.891230 -19.745184 -74.771643 43.100066 -3.107324 -0.079491 -33.698101 -4.538613 2.051404 0.001254 19.281466 -6.242288 2.572816 34.307997 -70.425070 -57.220542 2.319833 5.768871 17.687834 -12.497063 -74.044793 4.155929 -137.972359 81.811157 -135.264736 -3.517383 -17.846636 -2.361541 -0.244634 0.770098 -0.117086 -4.368095 -79.469812 23.008618 101.852607 77.841313 97.687428 -15.191503 -23.296066 1.809395 -0.336074 -1.107479 -0.156977
-32.207840 50.608389 19.537114 164.722638 -5.452829 -0.212861 2.845131 6.028414 0.424917 0.105151 0.240952 -0.015038 0.188050 0.424620 -0.035754 2.539413 5.799734 -0.321952 1.967105 19.560070 0.764691 3.351440 0.533322 0.780425 2.077084 5.764207 0.486633 -6.491038 -10.079848 -6.894025 -19.729428 -74.769639 43.094289 -3.102283 -0.081414 -33.696257 -4.543083 2.053048 0.002712 19.278953 -6.243216 2.579166 34.315393 -70.422534 -57.221120 2.319426 5.773367 17.681104 -12.499286 -74.032729 4.168565 -137.946118 81.808650 -135.240798 -3.511396 -17.850756 -2.361178 -0.244004 0.772927 -0.118030 -4.356085 -79.461053 23.009556 101.924211 77.862443 97.761791 -15.162009 -23.325200 1.820060 -0.341852 -1.092314 -0.166564
-32.206515 50.608197 19.536587 164.718976 -5.450034 -0.225244 2.850151 6.025227 0.435380 0.106124 0.241053 -0.019403 0.186621 0.424130 -0.032410 2.535594 5.798735 -0.324126 1.971923 19.562066 0.763335 3.353169 0.534297 0.783360 2.068800 5.766372 0.483948 -6.481101 -10.080874 -6.895354 -19.689014 -74.775737 43.055318 -3.097300 -0.070590 -33.687381 -4.545355 2.053990 0.003346 19.279929 -6.244172 2.582909 34.312612 -70.420008 -57.214943 2.318229 5.779212 17.681223 -12.553907 -74.030705 4.226824 -137.912098 81.806468 -135.208322 -3.502375 -17.849980 -2.358548 -0.248011 0.771219 -0.121455 -4.423060 -79.468890 23.079765 101.979654 77.870468 97.819102 -15.124718 -23.343051 1.825741 -0.332794 -1.088277 -0.171146
